<svg xmlns="http://www.w3.org/2000/svg" width="64" height="64" enable-background="new 0 0 64 64" viewBox="0 0 64 64"><path fill="#010101" d="M61.68,64H2.32c-1.28,0-2.318-1.038-2.318-2.318V2.321c0-1.28,1.038-2.318,2.318-2.318h48.222
				c1.28,0,2.318,1.038,2.318,2.318c0,1.281-1.038,2.319-2.318,2.319H4.639v54.722h54.722V13.451c0-1.281,1.038-2.319,2.319-2.319
				c1.28,0,2.318,1.038,2.318,2.319v48.23C63.999,62.962,62.96,64,61.68,64z"/><path fill="#010101" d="M31.996 46.44c-7.963 0-14.44-6.479-14.44-14.442 0-7.963 6.478-14.441 14.44-14.441 7.964 0 14.442 6.479 14.442 14.441C46.438 39.962 39.959 46.44 31.996 46.44zM31.996 22.194c-5.405 0-9.803 4.398-9.803 9.804 0 5.406 4.397 9.805 9.803 9.805 5.406 0 9.805-4.398 9.805-9.805C41.8 26.593 37.402 22.194 31.996 22.194zM61.676 15.772c-.593 0-1.187-.227-1.64-.68L48.902 3.958c-.906-.905-.906-2.373 0-3.279.906-.905 2.373-.905 3.279 0l11.135 11.136c.905.905.905 2.373 0 3.278C62.863 15.546 62.27 15.772 61.676 15.772zM14.869 54.254H9.015c-1.281 0-2.318-1.038-2.318-2.319 0-1.28 1.037-2.318 2.318-2.318h5.854c1.28 0 2.318 1.038 2.318 2.318C17.187 53.216 16.149 54.254 14.869 54.254z"/></svg>